<!-- Generated by IcoMoon.io -->
<svg version="1.1" xmlns="http://www.w3.org/2000/svg" width="53" height="50" viewBox="0 0 53 50">
<title>volume-high</title>
<path fill="#069" d="M43.459 45.021c-0.6 0-1.2-0.229-1.657-0.686-0.915-0.915-0.915-2.399 0-3.315 4.279-4.279 6.636-9.969 6.636-16.021s-2.357-11.741-6.636-16.020c-0.915-0.915-0.915-2.399 0-3.315s2.399-0.915 3.315 0c5.165 5.165 8.009 12.031 8.009 19.335s-2.844 14.17-8.009 19.335c-0.458 0.458-1.057 0.686-1.657 0.686zM35.133 40.602c-0.6 0-1.2-0.229-1.657-0.686-0.915-0.915-0.915-2.399 0-3.315 6.397-6.397 6.397-16.805 0-23.202-0.915-0.915-0.915-2.399 0-3.315s2.399-0.915 3.315 0c3.984 3.984 6.178 9.281 6.178 14.915s-2.194 10.931-6.178 14.916c-0.458 0.458-1.057 0.687-1.657 0.687v0zM26.808 36.183c-0.6 0-1.2-0.229-1.657-0.686-0.915-0.915-0.915-2.399 0-3.314 3.96-3.96 3.96-10.403 0-14.363-0.915-0.915-0.915-2.399 0-3.315s2.399-0.915 3.315 0c5.788 5.788 5.788 15.205 0 20.992-0.458 0.457-1.057 0.686-1.657 0.686z"></path>
<path fill="#069" d="M20.313 46.875c-0.407 0-0.806-0.159-1.105-0.458l-12.042-12.042h-5.603c-0.863 0-1.563-0.7-1.563-1.563v-15.625c0-0.863 0.7-1.563 1.563-1.563h5.603l12.042-12.042c0.447-0.447 1.119-0.581 1.703-0.339s0.965 0.812 0.965 1.444v40.625c0 0.632-0.381 1.202-0.965 1.444-0.193 0.080-0.396 0.119-0.598 0.119z"></path>
</svg>
