<!-- Generated by IcoMoon.io -->
<svg version="1.1" xmlns="http://www.w3.org/2000/svg" width="50" height="50" viewBox="0 0 50 50">
<title>volume-mute2</title>
<path fill="#f00" d="M46.875 30.232v4.143h-4.143l-5.232-5.232-5.232 5.232h-4.143v-4.143l5.232-5.232-5.232-5.232v-4.143h4.143l5.232 5.232 5.232-5.232h4.143v4.143l-5.232 5.232 5.232 5.232z"></path>
<path fill="#f00" d="M20.313 46.875c-0.407 0-0.806-0.159-1.105-0.458l-12.042-12.042h-5.603c-0.863 0-1.563-0.7-1.563-1.563v-15.625c0-0.863 0.7-1.563 1.563-1.563h5.603l12.042-12.042c0.447-0.447 1.119-0.581 1.703-0.339s0.965 0.812 0.965 1.444v40.625c0 0.632-0.381 1.202-0.965 1.444-0.193 0.080-0.396 0.119-0.598 0.119z"></path>
</svg>
